<svg width="22" height="22" viewBox="0 0 22 22" fill="none" xmlns="http://www.w3.org/2000/svg">
<g clip-path="url(#clip0_160_7540)">
<path d="M14.334 10.5002L13.1006 10.0669C13.0006 9.73353 12.8673 9.4002 12.6673 9.06686L13.234 7.9002C13.3006 7.76686 13.2673 7.6002 13.1673 7.53353L11.734 6.10019C11.634 6.00019 11.4673 5.96686 11.3673 6.03353L10.2006 6.60019C9.86732 6.43353 9.53398 6.3002 9.20065 6.16686L8.76732 4.93353C8.73398 4.8002 8.60065 4.7002 8.46732 4.7002H6.43398C6.30065 4.7002 6.16731 4.8002 6.10065 4.93353L5.66732 6.16686C5.33398 6.26686 5.00065 6.40019 4.66732 6.60019L3.53398 6.0002C3.40065 5.93353 3.26732 5.96686 3.13398 6.06686L1.70065 7.5002C1.60065 7.60018 1.56732 7.76686 1.63398 7.86686L2.20065 9.03353C2.03398 9.36686 1.90065 9.70018 1.80065 10.0335L0.567317 10.4669C0.433984 10.5335 0.333984 10.6669 0.333984 10.8002V12.8335C0.333984 12.9669 0.433984 13.1002 0.567317 13.1669L1.80065 13.6002C1.90065 13.9335 2.03398 14.2669 2.23398 14.6002L1.66732 15.7669C1.60065 15.9002 1.63398 16.0669 1.73398 16.1669L3.16732 17.6002C3.26732 17.7002 3.43398 17.7335 3.56732 17.6669L4.73398 17.1002C5.06732 17.2669 5.40065 17.4002 5.73398 17.5335L6.16732 18.7669C6.20065 18.9002 6.33398 19.0002 6.46732 19.0002H8.50065C8.63398 19.0002 8.76732 18.9002 8.80065 18.7669L9.23398 17.5335C9.56732 17.4335 9.90065 17.3002 10.234 17.1002L11.4006 17.6669C11.534 17.7335 11.6673 17.7002 11.7673 17.6002L13.2006 16.1669C13.3006 16.0669 13.334 15.9002 13.2673 15.7669L12.6673 14.5669C12.834 14.2335 12.9673 13.9002 13.1006 13.5669L14.334 13.1335C14.4673 13.1002 14.5673 12.9669 14.5673 12.8002V10.7669C14.5673 10.6669 14.4673 10.5335 14.334 10.5002ZM7.43398 14.6669C5.86732 14.6669 4.60065 13.4002 4.60065 11.8335C4.60065 10.2669 5.86732 9.0002 7.43398 9.0002C9.00065 9.0002 10.2673 10.2669 10.2673 11.8335C10.2673 13.3669 9.00065 14.6669 7.43398 14.6669Z" fill="#050B20"/>
<path d="M21.4332 3.86693L20.7665 3.63359C20.6999 3.46693 20.6332 3.30026 20.5665 3.16693L20.8665 2.53359C20.9332 2.40026 20.8999 2.26693 20.7999 2.13359L19.9999 1.30026C19.8999 1.20026 19.7332 1.16693 19.6332 1.23359L18.9999 1.53359C18.8332 1.46693 18.6999 1.40026 18.5332 1.33359L18.2999 0.666927C18.2665 0.533594 18.1332 0.433594 17.9999 0.433594H16.7999C16.6665 0.433594 16.5332 0.533594 16.4665 0.666927L16.2332 1.33359C16.0665 1.40026 15.8999 1.46693 15.7665 1.53359L15.1332 1.23359C14.9999 1.16693 14.8332 1.20026 14.7332 1.30026L13.8999 2.13359C13.7999 2.23359 13.7665 2.40026 13.8332 2.53359L14.1332 3.16693C14.0665 3.33359 13.9999 3.46693 13.9332 3.63359L13.2665 3.86693C13.1332 3.90026 13.0332 4.03359 13.0332 4.16693V5.36693C13.0332 5.50026 13.1332 5.63359 13.2665 5.66693L13.9332 5.90026C13.9999 6.06693 14.0665 6.23359 14.1332 6.40026L13.8332 7.00026C13.7665 7.13359 13.7999 7.30026 13.8999 7.40026L14.7332 8.23359C14.8332 8.33359 14.9999 8.36693 15.1332 8.30026L15.7665 8.00026C15.9332 8.06693 16.0999 8.13359 16.2332 8.20026L16.4665 8.86693C16.4999 9.00026 16.6332 9.10026 16.7999 9.10026H17.9999C18.1332 9.10026 18.2665 9.00026 18.2999 8.86693L18.5332 8.20026C18.6999 8.13359 18.8665 8.06693 18.9999 8.00026L19.6332 8.30026C19.7665 8.36693 19.8999 8.33359 20.0332 8.23359L20.8665 7.40026C20.9665 7.30026 20.9999 7.13359 20.9332 7.00026L20.6332 6.36693C20.6999 6.20026 20.7665 6.03359 20.8332 5.86693L21.4999 5.63359C21.6332 5.60026 21.7332 5.46693 21.7332 5.33359V4.13359C21.6665 4.03359 21.5665 3.90026 21.4332 3.86693ZM17.3665 6.43359C16.4332 6.43359 15.6999 5.70026 15.6999 4.76693C15.6999 3.86693 16.4332 3.10026 17.3665 3.10026C18.2665 3.10026 19.0332 3.83359 19.0332 4.76693C19.0332 5.70026 18.2665 6.43359 17.3665 6.43359Z" fill="#050B20"/>
<path d="M21.4335 14.7335L20.5001 14.4002C20.4335 14.1335 20.3335 13.9002 20.2001 13.6669L20.6335 12.7669C20.7001 12.6335 20.6668 12.5002 20.5668 12.4002L19.4335 11.2669C19.3335 11.1669 19.1668 11.1335 19.0335 11.2002L18.1668 11.6669C17.9335 11.5335 17.6668 11.4335 17.4335 11.3669L17.1335 10.4335C17.1001 10.3002 16.9668 10.2002 16.8001 10.2002H15.2001C15.1335 10.2002 15.1001 10.2002 15.0335 10.2335C15.1335 10.4002 15.2001 10.6002 15.2001 10.8002V12.8335C15.2001 13.2669 14.9335 13.6335 14.5335 13.7669L13.6001 14.1002C13.5335 14.2669 13.4668 14.4335 13.4001 14.5669L13.8335 15.4335C14.0335 15.8335 13.9668 16.2669 13.6335 16.6002L12.2001 18.0335C12.0335 18.2002 11.8335 18.3002 11.6335 18.3335L11.3335 18.9335C11.2668 19.0669 11.3001 19.2002 11.4001 19.3002L12.5335 20.4335C12.6335 20.5335 12.8001 20.5669 12.9335 20.5002L13.8335 20.0669C14.0668 20.2002 14.3335 20.3002 14.5668 20.3669L14.9001 21.3002C14.9335 21.4335 15.0668 21.5335 15.2335 21.5335H16.8335C16.9668 21.5335 17.1001 21.4335 17.1668 21.3002L17.4668 20.3669C17.7335 20.2669 17.9668 20.1669 18.2001 20.0669L19.1001 20.5002C19.2335 20.5669 19.3668 20.5335 19.5001 20.4335L20.6335 19.3002C20.7335 19.2002 20.7668 19.0335 20.7001 18.9335L20.2668 18.0335C20.4001 17.8002 20.5001 17.5335 20.5668 17.3002L21.5001 16.9669C21.6335 16.9335 21.7335 16.8002 21.7335 16.6335V15.0335C21.6668 14.9002 21.5668 14.8002 21.4335 14.7335ZM16.3335 18.1002C15.1001 18.1002 14.1001 17.1002 14.1001 15.8669C14.1001 14.6335 15.1001 13.6335 16.3335 13.6335C17.5668 13.6335 18.5668 14.6335 18.5668 15.8669C18.5668 17.1002 17.5668 18.1002 16.3335 18.1002Z" fill="#050B20"/>
</g>
<defs>
<clipPath id="clip0_160_7540">
<rect width="22" height="22" fill="white"/>
</clipPath>
</defs>
</svg>
