<svg width="79" height="90" viewBox="0 0 79 90" fill="none" xmlns="http://www.w3.org/2000/svg">
<path d="M77.9999 56.0001H52.9999C47.8332 65.5001 33.6844 84.6773 14.0844 89.0773V82.0001C21.4178 80.6668 35.7844 72.0773 34.5844 50.0773C33.6299 32.5775 12.4178 26.244 2.08442 28.0773C1.91775 26.744 -0.000185966 22.5002 1.99981 22.5002C1.99981 22.5002 27.0844 34.5775 54.0844 24.0775C56.9178 19.0775 61.7951 7.77637 57.5845 3.57754C56.0827 2.08002 55.6224 1.62135 55.5003 1.49987C55.5002 1.49991 55.5001 1.49996 55.5 1.5C55.5 1.5 55.4122 1.41227 55.5003 1.49987C57.8337 0.333248 62.7845 -0.622151 63.5845 8.5775C64.3845 17.7775 73.3332 44.3335 77.9999 56.0001Z" fill="transparent" stroke="black"/>
</svg>
