<svg width="20" height="20" viewBox="0 0 20 20" fill="none" xmlns="http://www.w3.org/2000/svg">
<path d="M3.51938 17.374V4.0795C3.51938 3.75721 3.64024 3.47521 3.88196 3.23349C4.12368 2.99177 4.40568 2.87091 4.72797 2.87091H10.1465C10.4688 2.87091 10.7508 2.99177 10.9925 3.23349C11.2342 3.47521 11.3551 3.75721 11.3551 4.0795V9.88075H12.6644C12.9415 9.88075 13.1785 9.97938 13.3757 10.1767C13.5729 10.3738 13.6716 10.6109 13.6716 10.8879V15.2993C13.6716 15.5904 13.7756 15.8344 13.9838 16.0313C14.1919 16.2282 14.4437 16.3266 14.7392 16.3266C15.0346 16.3266 15.2864 16.2282 15.4945 16.0313C15.7027 15.8344 15.8067 15.5904 15.8067 15.2993V9.35703C15.659 9.4376 15.5046 9.49803 15.3435 9.53832C15.1823 9.57861 15.0212 9.59875 14.86 9.59875C14.3298 9.59875 13.8817 9.41573 13.5157 9.04964C13.1496 8.68356 12.9666 8.23546 12.9666 7.70529C12.9666 7.28079 13.0874 6.89935 13.3291 6.56095C13.5709 6.22266 13.8931 5.99984 14.296 5.8924L12.3824 3.97879L13.1076 3.27378L16.1895 6.35569C16.3775 6.54371 16.5286 6.74848 16.6427 6.97006C16.7568 7.19163 16.8139 7.4367 16.8139 7.70529V15.2993C16.8139 15.8802 16.6137 16.3712 16.2132 16.7724C15.8129 17.1735 15.3228 17.374 14.7428 17.374C14.1629 17.374 13.6716 17.1735 13.2687 16.7724C12.8658 16.3712 12.6644 15.8802 12.6644 15.2993V10.8879H11.3551V17.374H3.51938ZM4.72797 8.67216H10.1465V4.0795H4.72797V8.67216ZM14.86 8.59159C15.1017 8.59159 15.3099 8.50429 15.4845 8.32973C15.659 8.15516 15.7463 7.947 15.7463 7.70529C15.7463 7.46357 15.659 7.25541 15.4845 7.08085C15.3099 6.90628 15.1017 6.81898 14.86 6.81898C14.6183 6.81898 14.4101 6.90628 14.2356 7.08085C14.061 7.25541 13.9737 7.46357 13.9737 7.70529C13.9737 7.947 14.061 8.15516 14.2356 8.32973C14.4101 8.50429 14.6183 8.59159 14.86 8.59159ZM4.72797 16.1654H10.1465V9.88075H4.72797V16.1654Z" fill="#90A3BF"/>
</svg>
